<?xml version="1.0" encoding="UTF-8"?>
<!--Generator: Apple Native CoreSVG 175.5-->
<!DOCTYPE svg
PUBLIC "-//W3C//DTD SVG 1.1//EN"
       "http://www.w3.org/Graphics/SVG/1.1/DTD/svg11.dtd">
<svg version="1.1" xmlns="http://www.w3.org/2000/svg" xmlns:xlink="http://www.w3.org/1999/xlink" width="22.207" height="27.6709">
 <g>
  <rect height="27.6709" opacity="0" width="22.207" x="0" y="0"/>
  <path d="M11.1035 27.6709C11.8652 27.6709 12.4072 27.1436 12.4072 26.3818L12.4072 7.08984L12.2607 2.72461L11.4258 3.01758L16.6846 8.77441L20.0244 12.0557C20.2588 12.29 20.5957 12.4072 20.9473 12.4072C21.6797 12.4072 22.207 11.8506 22.207 11.1328C22.207 10.7812 22.0898 10.4736 21.8115 10.1807L12.085 0.439453C11.8066 0.146484 11.4697 0 11.1035 0C10.7373 0 10.4004 0.146484 10.1221 0.439453L0.410156 10.1807C0.131836 10.4736 0 10.7812 0 11.1328C0 11.8506 0.527344 12.4072 1.25977 12.4072C1.61133 12.4072 1.96289 12.29 2.18262 12.0557L5.52246 8.77441L10.7666 3.01758L9.94629 2.72461L9.7998 7.08984L9.7998 26.3818C9.7998 27.1436 10.3418 27.6709 11.1035 27.6709Z" fill="#ffffff" fill-opacity="0.85"/>
 </g>
</svg>
